<mxfile host="app.diagrams.net" modified="2022-10-11T15:28:57.940Z" agent="5.0 (Windows NT 10.0; Win64; x64) AppleWebKit/537.36 (KHTML, like Gecko) Chrome/105.0.0.0 Safari/537.36" etag="s_OHNnxsOaz24Hx-CtyR" version="20.4.0" type="github">
  <diagram id="O1HLOzrHvc_H2nrpHi0a" name="페이지-1">
    <mxGraphModel dx="1673" dy="887" grid="1" gridSize="10" guides="1" tooltips="1" connect="1" arrows="1" fold="1" page="1" pageScale="1" pageWidth="827" pageHeight="1169" math="0" shadow="0">
      <root>
        <mxCell id="0" />
        <mxCell id="1" parent="0" />
        <mxCell id="tQeCukxdvzsqhCq9JMBM-1" value="메뉴판" style="rounded=0;whiteSpace=wrap;html=1;" parent="1" vertex="1">
          <mxGeometry x="170" y="330" width="80" height="30" as="geometry" />
        </mxCell>
        <mxCell id="tQeCukxdvzsqhCq9JMBM-2" value="메뉴 항목" style="rounded=0;whiteSpace=wrap;html=1;" parent="1" vertex="1">
          <mxGeometry x="310" y="330" width="80" height="30" as="geometry" />
        </mxCell>
        <mxCell id="tQeCukxdvzsqhCq9JMBM-3" value="손님" style="rounded=0;whiteSpace=wrap;html=1;" parent="1" vertex="1">
          <mxGeometry x="170" y="400" width="80" height="30" as="geometry" />
        </mxCell>
        <mxCell id="tQeCukxdvzsqhCq9JMBM-4" value="바리스타" style="rounded=0;whiteSpace=wrap;html=1;" parent="1" vertex="1">
          <mxGeometry x="170" y="470" width="80" height="30" as="geometry" />
        </mxCell>
        <mxCell id="tQeCukxdvzsqhCq9JMBM-5" value="커피" style="rounded=0;whiteSpace=wrap;html=1;" parent="1" vertex="1">
          <mxGeometry x="310" y="470" width="80" height="30" as="geometry" />
        </mxCell>
        <mxCell id="tQeCukxdvzsqhCq9JMBM-7" value="" style="endArrow=none;html=1;rounded=0;entryX=0.5;entryY=1;entryDx=0;entryDy=0;exitX=0.5;exitY=0;exitDx=0;exitDy=0;" parent="1" source="tQeCukxdvzsqhCq9JMBM-3" target="tQeCukxdvzsqhCq9JMBM-1" edge="1">
          <mxGeometry width="50" height="50" relative="1" as="geometry">
            <mxPoint x="390" y="410" as="sourcePoint" />
            <mxPoint x="440" y="360" as="targetPoint" />
          </mxGeometry>
        </mxCell>
        <mxCell id="tQeCukxdvzsqhCq9JMBM-9" value="" style="endArrow=none;html=1;rounded=0;exitX=0;exitY=0.5;exitDx=0;exitDy=0;entryX=1;entryY=0.5;entryDx=0;entryDy=0;" parent="1" source="tQeCukxdvzsqhCq9JMBM-5" target="tQeCukxdvzsqhCq9JMBM-4" edge="1">
          <mxGeometry width="50" height="50" relative="1" as="geometry">
            <mxPoint x="390" y="410" as="sourcePoint" />
            <mxPoint x="440" y="360" as="targetPoint" />
          </mxGeometry>
        </mxCell>
        <mxCell id="tQeCukxdvzsqhCq9JMBM-10" value="" style="endArrow=none;html=1;rounded=0;entryX=0.5;entryY=1;entryDx=0;entryDy=0;exitX=0.5;exitY=0;exitDx=0;exitDy=0;" parent="1" source="tQeCukxdvzsqhCq9JMBM-4" target="tQeCukxdvzsqhCq9JMBM-3" edge="1">
          <mxGeometry width="50" height="50" relative="1" as="geometry">
            <mxPoint x="390" y="410" as="sourcePoint" />
            <mxPoint x="440" y="360" as="targetPoint" />
          </mxGeometry>
        </mxCell>
        <mxCell id="tQeCukxdvzsqhCq9JMBM-11" value="" style="endArrow=none;html=1;rounded=0;entryX=0;entryY=0.5;entryDx=0;entryDy=0;exitX=1;exitY=0.5;exitDx=0;exitDy=0;" parent="1" source="tQeCukxdvzsqhCq9JMBM-1" target="tQeCukxdvzsqhCq9JMBM-2" edge="1">
          <mxGeometry width="50" height="50" relative="1" as="geometry">
            <mxPoint x="390" y="410" as="sourcePoint" />
            <mxPoint x="440" y="360" as="targetPoint" />
          </mxGeometry>
        </mxCell>
        <mxCell id="tQeCukxdvzsqhCq9JMBM-12" value="" style="rhombus;whiteSpace=wrap;html=1;" parent="1" vertex="1">
          <mxGeometry x="250" y="335" width="24" height="20" as="geometry" />
        </mxCell>
        <mxCell id="nq4khx2l2YOkrHsL_CRt-11" value="메뉴판" style="rounded=0;whiteSpace=wrap;html=1;" vertex="1" parent="1">
          <mxGeometry x="170" y="550" width="80" height="30" as="geometry" />
        </mxCell>
        <mxCell id="nq4khx2l2YOkrHsL_CRt-12" value="메뉴 항목" style="rounded=0;whiteSpace=wrap;html=1;" vertex="1" parent="1">
          <mxGeometry x="310" y="550" width="80" height="30" as="geometry" />
        </mxCell>
        <mxCell id="nq4khx2l2YOkrHsL_CRt-13" value="" style="edgeStyle=orthogonalEdgeStyle;rounded=0;orthogonalLoop=1;jettySize=auto;html=1;fontSize=9;" edge="1" parent="1" source="nq4khx2l2YOkrHsL_CRt-14" target="nq4khx2l2YOkrHsL_CRt-11">
          <mxGeometry relative="1" as="geometry" />
        </mxCell>
        <mxCell id="nq4khx2l2YOkrHsL_CRt-14" value="손님" style="rounded=0;whiteSpace=wrap;html=1;" vertex="1" parent="1">
          <mxGeometry x="170" y="620" width="80" height="30" as="geometry" />
        </mxCell>
        <mxCell id="nq4khx2l2YOkrHsL_CRt-15" value="바리스타" style="rounded=0;whiteSpace=wrap;html=1;" vertex="1" parent="1">
          <mxGeometry x="170" y="690" width="80" height="30" as="geometry" />
        </mxCell>
        <mxCell id="nq4khx2l2YOkrHsL_CRt-16" value="커피" style="rounded=0;whiteSpace=wrap;html=1;" vertex="1" parent="1">
          <mxGeometry x="310" y="690" width="80" height="30" as="geometry" />
        </mxCell>
        <mxCell id="nq4khx2l2YOkrHsL_CRt-17" value="" style="endArrow=none;html=1;rounded=0;entryX=0.5;entryY=1;entryDx=0;entryDy=0;exitX=0.5;exitY=0;exitDx=0;exitDy=0;" edge="1" parent="1" source="nq4khx2l2YOkrHsL_CRt-14" target="nq4khx2l2YOkrHsL_CRt-11">
          <mxGeometry width="50" height="50" relative="1" as="geometry">
            <mxPoint x="390" y="630" as="sourcePoint" />
            <mxPoint x="440" y="580" as="targetPoint" />
          </mxGeometry>
        </mxCell>
        <mxCell id="nq4khx2l2YOkrHsL_CRt-18" value="" style="endArrow=none;html=1;rounded=0;entryX=0;entryY=0.5;entryDx=0;entryDy=0;exitX=1;exitY=0.5;exitDx=0;exitDy=0;" edge="1" parent="1" source="nq4khx2l2YOkrHsL_CRt-11" target="nq4khx2l2YOkrHsL_CRt-12">
          <mxGeometry width="50" height="50" relative="1" as="geometry">
            <mxPoint x="390" y="630" as="sourcePoint" />
            <mxPoint x="440" y="580" as="targetPoint" />
          </mxGeometry>
        </mxCell>
        <mxCell id="nq4khx2l2YOkrHsL_CRt-19" value="" style="rhombus;whiteSpace=wrap;html=1;" vertex="1" parent="1">
          <mxGeometry x="250" y="555" width="24" height="20" as="geometry" />
        </mxCell>
        <mxCell id="nq4khx2l2YOkrHsL_CRt-20" value="" style="endArrow=classic;html=1;rounded=0;entryX=0;entryY=0.5;entryDx=0;entryDy=0;" edge="1" parent="1" target="nq4khx2l2YOkrHsL_CRt-14">
          <mxGeometry width="50" height="50" relative="1" as="geometry">
            <mxPoint x="100" y="635" as="sourcePoint" />
            <mxPoint x="290" y="610" as="targetPoint" />
          </mxGeometry>
        </mxCell>
        <mxCell id="nq4khx2l2YOkrHsL_CRt-21" value="&lt;font style=&quot;font-size: 9px;&quot;&gt;커피를 주문하라&lt;/font&gt;" style="text;html=1;align=center;verticalAlign=middle;resizable=0;points=[];autosize=1;strokeColor=none;fillColor=none;" vertex="1" parent="1">
          <mxGeometry x="80" y="610" width="100" height="30" as="geometry" />
        </mxCell>
        <mxCell id="nq4khx2l2YOkrHsL_CRt-22" value="" style="endArrow=classic;html=1;rounded=0;fontSize=9;exitX=0.5;exitY=1;exitDx=0;exitDy=0;entryX=0.5;entryY=0;entryDx=0;entryDy=0;" edge="1" parent="1" source="nq4khx2l2YOkrHsL_CRt-14" target="nq4khx2l2YOkrHsL_CRt-15">
          <mxGeometry width="50" height="50" relative="1" as="geometry">
            <mxPoint x="240" y="660" as="sourcePoint" />
            <mxPoint x="290" y="610" as="targetPoint" />
          </mxGeometry>
        </mxCell>
        <mxCell id="nq4khx2l2YOkrHsL_CRt-23" value="" style="endArrow=classic;html=1;rounded=0;fontSize=9;exitX=1;exitY=0.5;exitDx=0;exitDy=0;entryX=0;entryY=0.5;entryDx=0;entryDy=0;" edge="1" parent="1" source="nq4khx2l2YOkrHsL_CRt-15" target="nq4khx2l2YOkrHsL_CRt-16">
          <mxGeometry width="50" height="50" relative="1" as="geometry">
            <mxPoint x="240" y="660" as="sourcePoint" />
            <mxPoint x="290" y="610" as="targetPoint" />
          </mxGeometry>
        </mxCell>
        <mxCell id="nq4khx2l2YOkrHsL_CRt-24" value="생성하라" style="text;html=1;align=center;verticalAlign=middle;resizable=0;points=[];autosize=1;strokeColor=none;fillColor=none;fontSize=9;" vertex="1" parent="1">
          <mxGeometry x="250" y="680" width="60" height="30" as="geometry" />
        </mxCell>
        <mxCell id="nq4khx2l2YOkrHsL_CRt-25" value="커피를 제조하라" style="text;html=1;align=center;verticalAlign=middle;resizable=0;points=[];autosize=1;strokeColor=none;fillColor=none;fontSize=9;" vertex="1" parent="1">
          <mxGeometry x="200" y="650" width="100" height="30" as="geometry" />
        </mxCell>
        <mxCell id="nq4khx2l2YOkrHsL_CRt-26" value="메뉴 항목을 찾아라" style="text;html=1;resizable=0;autosize=1;align=center;verticalAlign=middle;points=[];fillColor=none;strokeColor=none;rounded=0;fontSize=9;" vertex="1" parent="1">
          <mxGeometry x="200" y="590" width="110" height="30" as="geometry" />
        </mxCell>
      </root>
    </mxGraphModel>
  </diagram>
</mxfile>
